<svg xmlns="http://www.w3.org/2000/svg" viewBox="0 0 64 64" role="img" aria-label="Mnemosyne">
  <rect width="64" height="64" rx="16" fill="#faf8f5"/>
  <path fill="#b85c38" transform="matrix(0.037422 0 0 -0.037422 4.326403 45.079002)" d="M1365 -115Q1350 -113 1324.0 -107.5Q1298 -102 1271.0 -86.0Q1244 -70 1225.0 -37.5Q1206 -5 1206 49Q1206 111 1231.5 185.5Q1257 260 1294.0 341.0Q1331 422 1365 501Q1392 564 1392 597Q1392 630 1367 630Q1339 630 1283.5 585.5Q1228 541 1155 451Q1136 427 1106.0 384.5Q1076 342 1042.0 290.5Q1008 239 975.5 186.5Q943 134 918.5 90.0Q894 46 883 20Q870 -11 853.0 -22.5Q836 -34 821 -34Q808 -34 799 -27Q789 -20 789 -10Q789 -4 792 0Q798 12 822.0 55.0Q846 98 878.0 169.0Q910 240 939 334Q948 363 957.5 401.0Q967 439 975.0 479.5Q983 520 988.5 555.5Q994 591 994 613Q994 648 982.0 664.5Q970 681 950 681Q928 681 900.0 662.0Q872 643 843 607Q793 544 755.0 490.5Q717 437 685.5 384.0Q654 331 623.5 271.0Q593 211 559.0 136.5Q525 62 481 -36Q474 -52 457.5 -59.0Q441 -66 427 -66Q413 -66 404.0 -60.0Q395 -54 398 -43Q420 -8 447.0 44.5Q474 97 502.0 161.0Q530 225 556.0 294.0Q582 363 602.5 429.0Q623 495 635.0 553.0Q647 611 647 652Q647 729 614.5 762.0Q582 795 531 795Q486 795 432.0 773.0Q378 751 323.5 713.0Q269 675 221 627Q152 558 112.5 477.0Q73 396 73 313Q73 257 94.0 218.0Q115 179 149.5 159.0Q184 139 226 139Q269 139 306.5 160.5Q344 182 372.5 216.5Q401 251 417.0 289.5Q433 328 433 362Q433 391 417.0 410.0Q401 429 366 429Q362 429 357.5 428.5Q353 428 348 428H345Q338 428 332.0 430.5Q326 433 326 437Q326 441 336.5 446.0Q347 451 375 451Q420 451 442.5 424.5Q465 398 465 357Q465 317 444.5 275.0Q424 233 389.0 197.0Q354 161 310.5 139.0Q267 117 221 117Q167 117 120.5 142.0Q74 167 46.0 214.5Q18 262 18 328Q18 391 44.0 452.5Q70 514 111.5 568.5Q153 623 200 665Q252 712 310.0 745.5Q368 779 425.5 797.5Q483 816 533 816Q607 816 655.5 772.0Q704 728 704 630Q704 590 693.0 538.5Q682 487 667.0 435.5Q652 384 638 344H640Q676 409 704.5 455.5Q733 502 762.0 542.0Q791 582 827 626Q858 663 898.0 685.0Q938 707 975 707Q1008 707 1031.0 685.0Q1054 663 1054 610Q1054 604 1054.0 600.0Q1054 596 1053 588Q1044 492 1015.0 399.5Q986 307 955 213Q986 261 1039.0 335.0Q1092 409 1155 488Q1232 584 1298.0 632.0Q1364 680 1407 680Q1461 680 1461 614Q1461 589 1451.5 554.0Q1442 519 1422 480Q1400 436 1373.5 378.5Q1347 321 1323.0 258.0Q1299 195 1283.5 134.5Q1268 74 1268 23Q1268 -32 1293.5 -65.5Q1319 -99 1382 -99H1388Q1403 -99 1403 -105Q1403 -109 1393.0 -113.0Q1383 -117 1365 -115Z"/>
</svg>
